<svg xmlns="http://www.w3.org/2000/svg" viewBox="0 0 1440 320"><path fill="#216c21" fill-opacity="1" d="M0,160L26.7,138.7C53.3,117,107,75,160,85.3C213.3,96,267,160,320,186.7C373.3,213,427,203,480,170.7C533.3,139,587,85,640,69.3C693.3,53,747,75,800,122.7C853.3,171,907,245,960,234.7C1013.3,224,1067,128,1120,128C1173.3,128,1227,224,1280,224C1333.3,224,1387,128,1413,80L1440,32L1440,0L1413.3,0C1386.7,0,1333,0,1280,0C1226.7,0,1173,0,1120,0C1066.7,0,1013,0,960,0C906.7,0,853,0,800,0C746.7,0,693,0,640,0C586.7,0,533,0,480,0C426.7,0,373,0,320,0C266.7,0,213,0,160,0C106.7,0,53,0,27,0L0,0Z"></path></svg>